/* XPM */
static char *_9411_60dab91592c0f4be4849c0b97d9eb29ff4559f358be2fe1a82fe9024e49bf0a9[] = {
/* columns rows colors chars-per-pixel */
"34 34 243 2 ",
"   c #77383F",
".  c #5F374E",
"X  c #5E374F",
"o  c #5F374F",
"O  c #573653",
"+  c #533656",
"@  c #533757",
"#  c #563654",
"$  c #573654",
"%  c #5C3750",
"&  c #593955",
"*  c #5F3C54",
"=  c #543958",
"-  c #563C59",
";  c #553C5B",
":  c #553D5B",
">  c #553D5C",
",  c #61394F",
"<  c #613A4F",
"1  c #6C3C4B",
"2  c #733841",
"3  c #733842",
"4  c #743D45",
"5  c #7C3F42",
"6  c #613A50",
"7  c #633B50",
"8  c #603D53",
"9  c #653D51",
"0  c #653E51",
"q  c #663E51",
"w  c #5A4B57",
"e  c #5A4158",
"r  c #5B4258",
"t  c #5C4358",
"y  c #5D4359",
"u  c #5D4559",
"i  c #5F4658",
"p  c #58415D",
"a  c #5C435D",
"s  c #5D445C",
"d  c #5E4C5F",
"f  c #5F4C5F",
"g  c #7F4041",
"h  c #72404B",
"j  c #70404C",
"k  c #654153",
"l  c #664052",
"z  c #6A4251",
"x  c #6B4352",
"c  c #6C4553",
"v  c #6B4756",
"b  c #6F4A56",
"n  c #6E4B58",
"m  c #6E4D58",
"M  c #704C57",
"N  c #714D57",
"B  c #7A4F53",
"V  c #7D4F51",
"C  c #64505C",
"Z  c #68555B",
"A  c #69595E",
"S  c #6B5A5E",
"D  c #7C5154",
"F  c #70515A",
"G  c #73545B",
"H  c #594A67",
"J  c #594B67",
"K  c #594C68",
"L  c #5D5169",
"P  c #645060",
"I  c #6C5564",
"U  c #645A6C",
"Y  c #635F6F",
"T  c #645E6D",
"R  c #6B5D6D",
"E  c #705F69",
"W  c #62646A",
"Q  c #6B676D",
"!  c #706E6F",
"~  c #7D6F69",
"^  c #7C726C",
"/  c #676173",
"(  c #62677C",
")  c #843E3B",
"_  c #853F3B",
"`  c #82403F",
"'  c #83413F",
"]  c #85423F",
"[  c #88433E",
"{  c #8A453E",
"}  c #8B463E",
"|  c #8C473F",
" . c #8E493F",
".. c #834240",
"X. c #844441",
"o. c #874540",
"O. c #894741",
"+. c #8D4941",
"@. c #8D4A42",
"#. c #8E4B42",
"$. c #8F4B42",
"%. c #8C4D44",
"&. c #844F4C",
"*. c #904C41",
"=. c #83524F",
"-. c #86504C",
";. c #86514C",
":. c #87514C",
">. c #84514E",
",. c #8B5149",
"<. c #89514B",
"1. c #88544E",
"2. c #89554F",
"3. c #8F564C",
"4. c #935042",
"5. c #945042",
"6. c #945143",
"7. c #955243",
"8. c #965243",
"9. c #965343",
"0. c #915145",
"q. c #935044",
"w. c #975444",
"e. c #965445",
"r. c #955746",
"t. c #995746",
"y. c #9B5946",
"u. c #9C5946",
"i. c #9D5A46",
"p. c #9E5C47",
"a. c #905449",
"s. c #985648",
"d. c #965849",
"f. c #995948",
"g. c #9C5A48",
"h. c #9D5C48",
"j. c #9F5D48",
"k. c #9F5E4A",
"l. c #9C5F4D",
"z. c #855855",
"x. c #A05F49",
"c. c #A05F4A",
"v. c #9D604A",
"b. c #9F6452",
"n. c #9F6850",
"m. c #A1604B",
"M. c #A2614A",
"N. c #A0634B",
"B. c #A3624B",
"V. c #A1614D",
"C. c #A3634C",
"Z. c #A4644C",
"A. c #A4644D",
"S. c #A6674F",
"D. c #A5694E",
"F. c #A46650",
"G. c #A76950",
"H. c #A66851",
"J. c #A56A54",
"K. c #A86A51",
"L. c #A86A53",
"P. c #AA6C52",
"I. c #AC6F54",
"U. c #AD7055",
"Y. c #AE7155",
"T. c #AE7256",
"R. c #AF7256",
"E. c #AE7356",
"W. c #AF7357",
"Q. c #AF7E5A",
"!. c #B07757",
"~. c #B07458",
"^. c #B17558",
"/. c #B27659",
"(. c #B27759",
"). c #B2775A",
"_. c #B3785A",
"`. c #B3795A",
"'. c #B47A5B",
"]. c #B47B5B",
"[. c #B27C5A",
"{. c #B57F5C",
"}. c #78A158",
"|. c #7A8076",
" X c #7A8176",
".X c #7B8276",
"XX c #AF825B",
"oX c #B0835B",
"OX c #B6815D",
"+X c #B7825E",
"@X c #B5865D",
"#X c #B5875D",
"$X c #B6885E",
"%X c #B78B5E",
"&X c #B88C5F",
"*X c #A69B5D",
"=X c #A89B5C",
"-X c #8B8D6B",
";X c #8C8E6B",
":X c #8E906B",
">X c #979A67",
",X c #9B9A64",
"<X c #B28962",
"1X c #BA8C61",
"2X c #BA8D61",
"3X c #B59164",
"4X c #BC9163",
"5X c #BC9263",
"6X c #BE9865",
"7X c #9CA067",
"8X c #A0A668",
"9X c #A1A768",
"0X c #A2A968",
"qX c #A3A969",
"wX c #A1A86A",
"eX c #A2AA6A",
"rX c #A2AE6F",
"tX c #A4AF6F",
"yX c #B2A660",
"uX c #B3A861",
"iX c #A4B06F",
"pX c #A2AF72",
"aX c #A4B272",
"sX c #A6B672",
"dX c #ABBB71",
"fX c #A9BA72",
"gX c #AABA72",
"hX c #B5C46D",
"jX c #B7CA70",
"kX c #B8CB71",
"lX c #C0D470",
"zX c #7E7B8A",
"xX c #7A8381",
"cX c #948C80",
"vX c #8E9086",
"bX c #89938D",
"nX c #8D968C",
"mX c #B59D92",
"MX c #C1AB80",
"NX c #C3AD81",
"BX c #DBE1A5",
"VX c #E8EEAA",
"CX c None",
/* pixels */
"lXlXlXlXlXlXlXlXlXlXlXlXlXlXlXlXlXlXlXlXlXlXlXlXlXlXlXlXlXlXlXlXlXlX",
"lXlXlXlXlXlXlXlXlXlXlXlXlXlXlXlXlXlXlXlXlXlXlXlXlXlXlXlXlXlXlXlXlXlX",
"lXlXlXlXlXlXlXlXlXlXlXlXlXlXlXlXlXlXlXlXlXlXlXlXlXlXlXlXlXlXlXlXlXlX",
"lXlXlXlXlXlXlXlXlXlXlXlX}.lXlXlXlXlXlXlXlXlXlXlXlX}.lX}.lXlXlXlXlXlX",
"lXlXlXlXlXlXlXlXlXlXlX}.lXlXlXlXlXlXlXlXlXlXlXlXlXlX}.lXlXlXlXlXlXlX",
"lXlXlXlXlXdX! Z Z Z Z w Z Z Z Z Z Z Z Z Z Z Z Z Z Z A  XlXlXlXlXlXlX",
"lXlXlXgXW C ; %                                   3 @ p S |.lXlXlXlX",
"lXlXlXeX: % 5 a.g.L.L.L.L.L.L.L.L.L.L.L.L.L.L.L.H.e.,.2 @ f lXlXlXlX",
"lXlXfXQ % g N.@XW._._._._._._._._._._._._._._._.(.T.I.6.3 - .XlXlXlX",
"lXlXwX> q h.[.6X1X_._._._._._._._._._._._._._._._._.).I.0.@ d lXlXlX",
"lXlX8X+ , [ @.r.D.C.C.C.S._._._._._.~.C.C.C.C.c.$.C.C.c.` + t lXlXlX",
"lXlX8X+ 0 v.XXQ.P.M.!.%X&X5X5X2X_._.(.Y.Y.Y.Y.E.oX%X%X#Xb.+ t lXlXlX",
"lXlX8X+ m $XOX{./.R.'.OXOXOXOX{._._._._._._._.`.OXOXOX+X<X+ t lXlXlX",
"lXlX8X+ F 4X_._._._._._._._._._._._._._._._._._._._._.].3X+ t lXlXlX",
"lXlX8X+ n {._._._._._._._._._._._._._._._._._._._._._.(.n.+ t lXlXlX",
"lXlXrXK 7 s._._.W.G._._._._._._._._._._._._.^.Z.Z.Z.Z.m.' = Y lXlXlX",
"lXlXkX:X# 1 #.#.+.{ #.#.#.#.q.Z.Z.Z.Z.Z.Z.Z.C.x.U.U.U.J.X e sXlXlXlX",
"lXlXlX9X+ 9 t.F.F.V.7.7.7.7.w.p.p.p.p.p.p.x.K.| Z.Z.Z.l.+ y lXlXlXlX",
"lXlXlX9X+ < *.A.A.B.p.p.p.p.p.p.p.p.p.p.p.j.k.) p.p.u...+ y lXlXlXlX",
"lXlXlXtXJ $ j p.p.p.p.p.p.p.p.p.p.p.p.p.p.p.i.9.p.u.] . = / lXlXlXlX",
"lXlXlXjX;X+ & c N N b z z v E ~ N G ^ I z x N N N M k + s aXlXlXlXlX",
"lXlXlXlX0X+ 8 :.2.2.1.-.-.D ( vX4 B bXa -.;.2.2.2.2.=.+ u lXlXlXlXlX",
"lXlXlXlX0X+ l p.p.p.p.p.p.3.L nXmXcXxX* p.p.p.p.p.p.d.+ u lXlXlXlXlX",
"lXlXlXVXiXH 6 { { { { { { O.V U zXR P <.p.p.p.p.p.p.d.= T lXlXlXlXlX",
"lXlXlXlXBX-Xo _ 5.5.5.5.5.8.f.>.z.&.<.p.p.p.y.{ { o.z r pXlXlXlXlXlX",
"lXlXlXlXVXqXO h p.p.p.p.p.p.p.p.p.p.p.p.p.p.i.4.4.%.+ i lXlXlXlXlXlX",
"lXlXlXlXVXqX+ 6 } } } } } } } } } } } } }  .p.u.} X.+ i lXlXlXlXlXlX",
"lXlXlXlXlXhX>X,X=X=X=XMX=X=X=X=X=X=X=X=X=XNXuXyX=X*X>X7XlXlXlXlXlXlX",
"lXlXlXlXlXlXlXlXlXlXlXVXlXlXlXlXlXlXlXlXlXlXlXlXlXlXlXlXlXlXlXlXlXlX",
"lXlXlXlXlXlXlXlXlXlXlXlXlXlXlXlXlXlXlXlXlXlXlXlXlXlXlXlXlXlXlXlXlXlX",
"lXlXlXlXlXlXlXlXlXlXlXlXlXlXlXlXlXlXlXlXlXlXlXlXlXlXlXlXlXlXlXlXlXlX",
"lXlXlXlXlXlXlXlXlXlXlXlXlXlXlXlXlXlXlXlXlXlXlXlXlXlXlXlXlXlXlXlXlXlX",
"CXCXCXCXCXCXCXCXCXCXCXCXCXCXCXCXCXCXCXCXCXCXCXCXCXCXCXCXCXCXCXCXCXCX",
"CXCXCXCXCXCXCXCXCXCXCXCXCXCXCXCXCXCXCXCXCXCXCXCXCXCXCXCXCXCXCXCXCXCX"
};
