/* XPM */
static char *result[] = {
/* columns rows colors chars-per-pixel */
"31 31 151 2 ",
"   c #730E19",
".  c #72101B",
"X  c #53022E",
"o  c #57082D",
"O  c #580C2E",
"+  c #5C142E",
"@  c #591533",
"#  c #52173E",
"$  c #67192C",
"%  c #7B1F20",
"&  c #601733",
"*  c #67262E",
"=  c #6C2B2F",
"-  c #732320",
";  c #75292C",
":  c #6E352F",
">  c #733A2F",
",  c #6E2739",
"<  c #693237",
"1  c #773832",
"2  c #7A402F",
"3  c #7E4630",
"4  c #531E42",
"5  c #562142",
"6  c #532A4D",
"7  c #5A3046",
"8  c #533656",
"9  c #553957",
"0  c #5B3B56",
"q  c #543C5B",
"w  c #6B3C59",
"e  c #7A3C54",
"r  c #5C445B",
"t  c #5E5456",
"y  c #604859",
"u  c #7B415B",
"i  c #67525B",
"p  c #6C5A5B",
"a  c #72625D",
"s  c #76695E",
"d  c #796D5F",
"f  c #544161",
"g  c #5B4B62",
"h  c #5B516C",
"j  c #565573",
"k  c #565876",
"l  c #5A5B75",
"z  c #634B64",
"x  c #615B71",
"c  c #765F72",
"v  c #5F6476",
"b  c #666771",
"n  c #686174",
"m  c #696E73",
"M  c #646A7B",
"N  c #726273",
"B  c #746C78",
"V  c #7C6D7A",
"C  c #6C757B",
"Z  c #737679",
"A  c #A23C12",
"S  c #87332D",
"D  c #8B3E3D",
"F  c #AD4F18",
"G  c #B54C12",
"H  c #B65A1D",
"J  c #B95A1A",
"K  c #984527",
"L  c #844D30",
"P  c #8F5931",
"I  c #89543C",
"U  c #905A32",
"Y  c #936136",
"T  c #94653C",
"R  c #B8693F",
"E  c #C46819",
"W  c #CA721B",
"Q  c #C67131",
"!  c #965748",
"~  c #8D5553",
"^  c #9F7645",
"/  c #976A5C",
"(  c #A5694F",
")  c #A57A46",
"_  c #906B66",
"`  c #837C61",
"'  c #807B76",
"]  c #9C7877",
"[  c #B17D60",
"{  c #6D8157",
"}  c #79A257",
"|  c #72837F",
" . c #D4831F",
".. c #A5824D",
"X. c #8D8963",
"o. c #949465",
"O. c #979866",
"+. c #9A9C67",
"@. c #9EA368",
"#. c #A0A668",
"$. c #A5AD69",
"%. c #ACB76B",
"&. c #B1BE6C",
"*. c #B3BD74",
"=. c #D08C4C",
"-. c #D99850",
";. c #D8A263",
":. c #B4C36D",
">. c #BACB6F",
",. c #BED06F",
"<. c #BCCD7D",
"1. c #C1D570",
"2. c #EEC56D",
"3. c #F0CA74",
"4. c #F4D37F",
"5. c #6F7085",
"6. c #737A85",
"7. c #767689",
"8. c #7C7A89",
"9. c #8A7986",
"0. c #7F868A",
"q. c #868285",
"w. c #878C8C",
"e. c #90858F",
"r. c #89968F",
"t. c #8C8B95",
"y. c #879190",
"u. c #8E9C92",
"i. c #969896",
"p. c #94929A",
"a. c #A29397",
"s. c #9BA29A",
"d. c #99A49A",
"f. c #ADA489",
"g. c #A1A59F",
"h. c #9F9DA1",
"j. c #A2A3A3",
"k. c #B2AFAD",
"l. c #AAB3A4",
"z. c #B5B3AE",
"x. c #B3BBAA",
"c. c #BBBAB1",
"v. c #BEC3B2",
"b. c #C6D484",
"n. c #F3D482",
"m. c #C3C5B5",
"M. c #CAC9BA",
"N. c #D1CDBF",
"B. c #E9EFAC",
"V. c #D7D2C2",
"C. c #D9D4C4",
/* pixels */
"1.1.1.1.1.1.1.1.1.1.1.1.>.&.&.&.&.&.&.1.1.1.1.1.1.1.1.1.1.1.1.",
"1.1.1.1.1.1.1.1.1.1.1.1.` 8 8 8 8 0 8 #.1.1.1.1.1.1.1.1.1.1.1.",
"1.1.1.1.1.1.1.1.1.1.1.a 9 h m m m m 8 r #.1.1.1.1.1.1.1.1.1.1.",
"1.1.1.1.1.1.1.1.1.1.1.8 t k.C.V.C.N.| 8 o.1.1.1.1.} 1.} 1.1.1.",
"1.1.1.1.1.1.1.1.1.1.a 9 d.C.C.C.C.C.C.Z 8 :.1.1.1.1.} 1.1.1.1.",
"1.1.1.1.1.1.1.1.1.,.a 8 x.C.C.C.C.C.C.w.8 :.1.1.1.1.1.1.1.1.1.",
"1.1.1.1.} 1.1.1.1.1.a 8 d.C.C.C.C.C.C.m 8 :.1.1.1.1.1.1.1.1.1.",
"1.1.1.1.1.} 1.1.1.1.a 8 C k z.C.N.7.k m 8 :.1.1.1.1.1.1.1.1.1.",
"1.1.1.1.1.} 1.1.1.1.t 8 6.5.k C.h.k t.l 9 :.1.1.1.1.1.1.1.1.1.",
"1.1.1.1.1.1.1.1.1.} %.8 N z.z.u.g.z.x.q ` ,.1.1.1.1.1.1.1.1.1.",
"1.1.1.1.1.1.1.1.1.} 1.q f 0.V.k p.e j 8 o.} 1.1.1.1.1.1.1.1.1.",
"1.1.1.1.1.1.1.1.,.@.#.@.8 h y.k.j.S X p { @.$.1.1.1.1.1.1.1.1.",
"1.1.1.1.1.1.1.1.d N a.a.9.g w.j.i.S [ w a.a.r +.1.1.1.1.1.1.1.",
"1.1.1.1.1.1.1.1.r s.C.C.m.n f M x % n.u C.C.m ` 1.1.1.1.1.1.1.",
"1.1.1.1.1.1.:.y 9 6.c.m.u.b k l./ ;.4.e M.d.j 8 +.1.1.1.1.1.1.",
"1.1.1.1.1.:.p 8 n 7.v M B e.h q.( =.n., b l t.g 8 X.1.1.1.1.1.",
"1.1.1.1.1.#.9 b z.n q C q.N h w R Q n.@ < 7 _ i.f q 1.1.1.1.1.",
"1.1.1.1.1.8 a.C.C 8 q 8 9.V.z , -.W X T ....^ ] V.8 s 1.1.1.1.",
"1.1.1.1.1.8 9.u.x 8 #.9 q.f ; J H 1 ) Y P P > I ] 8 p :.1.1.1.",
"1.1.1.1.1.` q M j.f a o.w D A F ; I P > P P : Y : # 8 f.1.B.1.",
"1.1.1.1.1.#.8 q r.p.f &     E $ 3 L P 2 P P : P > X 8 o.B.1.1.",
"1.1.1.1.1.1.X.q q C c.G F . + ) 3 3 P P P P 2 P : X 8 o.1.1.1.",
"1.1.1.1.1.1.B.X.8 B M.E 3.Q ) U 3 L P P P P 3 P > X 9 O.1.1.1.",
"1.1.1.B.1.1.B.1.O.9 c  .2.H ) U 3 L P P P P : P * 6 p >.1.1.1.",
"1.1.1.1.B.1.B.1.1.o.K 4.J - ^ U 3 L P > P P : 3 @ 8 s ,.1.1.1.",
"1.1.1.1.B.1.1.1.1.1.! K ~ g # I 3 L P 2 P L = @ 6 9 1.,.1.1.1.",
"1.1.1.1.B.1.1.1.1.1.a 9 N.8.q 5 = 3 P : ; + 7 6 8 @.1.1.1.1.1.",
"1.1.1.1.1.1.1.1.1.1.>.8 N l.f 8 4 o O X # 8 8 8 @.1.1.1.1.1.1.",
"1.1.1.1.1.1.1.1.1.:.p z d.M q i r l 5.i.r 8 s 1.,.,.1.1.1.1.1.",
"1.1.1.1.1.1.1.1.1.o.8 v.c.i.` 1.$.' v.v.V 8 1.1.,.,.1.1.1.1.1.",
"1.1.1.1.1.1.1.1.1.:.$.b.<.*.1.1.1.&.<.<.&.$.1.1.1.1.1.1.1.1.1."
};
