/* XPM */
static char *_afcd87787de4b91f7029c07b3c90445NREKZUqbDTqLpY67[] = {
/* columns rows colors chars-per-pixel */
"32 32 122 2 ",
"   c #4F2914",
".  c #4D2C1A",
"X  c #513625",
"o  c #543826",
"O  c #50392D",
"+  c #593E2D",
"@  c #533D32",
"#  c #563F31",
"$  c #544034",
"%  c #584133",
"&  c #594133",
"*  c #5B4537",
"=  c #56443B",
"-  c #55453C",
";  c #57473F",
":  c #594739",
">  c #59483B",
",  c #5B483B",
"<  c #594A3D",
"1  c #5E4B3D",
"2  c #674E2C",
"3  c #624835",
"4  c #756233",
"5  c #584840",
"6  c #594940",
"7  c #5E4E41",
"8  c #594D46",
"9  c #5A4E48",
"0  c #5B5047",
"q  c #5E5045",
"w  c #5C5247",
"e  c #5D5348",
"r  c #5C504A",
"t  c #5D524A",
"y  c #5E534D",
"u  c #5E544D",
"i  c #5E554E",
"p  c #5F564F",
"a  c #615246",
"s  c #625347",
"d  c #635447",
"f  c #6B5647",
"g  c #615348",
"h  c #62574D",
"j  c #60584F",
"k  c #64584C",
"l  c #675A4D",
"z  c #605750",
"x  c #615851",
"c  c #625953",
"v  c #635B52",
"b  c #665E55",
"n  c #655E56",
"m  c #655F56",
"M  c #655F57",
"N  c #695D51",
"B  c #665F58",
"V  c #6C6345",
"C  c #6D6546",
"Z  c #7A6D44",
"A  c #716C4F",
"S  c #706D4F",
"D  c #666058",
"F  c #676159",
"G  c #676259",
"H  c #68635A",
"J  c #69635B",
"K  c #68645A",
"L  c #6A665C",
"P  c #6B675D",
"I  c #6C645C",
"U  c #6C665E",
"Y  c #6D685F",
"T  c #726E52",
"R  c #736F53",
"E  c #756859",
"W  c #737054",
"Q  c #747255",
"!  c #767357",
"~  c #777558",
"^  c #79715D",
"/  c #7C7A5D",
"(  c #6E6860",
")  c #6E6A60",
"_  c #706B61",
"`  c #7B7264",
"'  c #767469",
"]  c #7E7C72",
"[  c #81783F",
"{  c #827E4E",
"}  c #78A158",
"|  c #8A8549",
" . c #8B864A",
".. c #8C874A",
"X. c #8C874B",
"o. c #88814D",
"O. c #8D8A4E",
"+. c #908B49",
"@. c #848557",
"#. c #9C9F53",
"$. c #9DA054",
"%. c #9DA055",
"&. c #9FA356",
"*. c #A1A456",
"=. c #A7AE5B",
"-. c #ACB65F",
";. c #898C60",
":. c #8A8D62",
">. c #8C9163",
",. c #8B9065",
"<. c #93996B",
"1. c #868579",
"2. c #989E71",
"3. c #9D9C7D",
"4. c #ADB861",
"5. c #AFBB63",
"6. c #B4C166",
"7. c #B4C367",
"8. c #B4C368",
"9. c #B8C96B",
"0. c #C0D470",
"q. c #E8EEAA",
/* pixels */
"0.0.0.0.0.0.0.0.0.0.0.0.0.0.0.0.0.0.0.0.0.0.0.0.0.0.0.0.0.0.0.0.",
"0.0.0.0.0.0.0.0.0.0.0.0.0.0.0.0.0.0.0.0.0.0.0.0.0.0.0.0.0.0.0.0.",
"0.0.0.0.0.0.0.0.0.0.0.0.0.0.0.0.0.0.0.0.0.0.0.0.0.0.0.0.0.0.0.0.",
"0.0.0.0.0.0.0.0.0.0.0.0.} 0.0.0.0.0.0.0.0.0.0.0.0.} 0.} 0.0.0.0.",
"0.0.0.0.0.0.0.0.0.0.0.} 0.0.0.0.0.0.0.0.0.0.0.0.0.0.} 0.0.0.0.0.",
"5.3 3 3 3 3 3 3 3 Z 3 3 3 3 3 3 3 3 3 3 3 o.3 3 3 3 3 3 3 3 7.0.",
"2 1.1.1.1.1.1.1.1.` 1.1.1.1.1.1.1.1.1.1.1.E 1.1.1.1.1.1.1.1.4 0.",
"0.0.0.! _ ) Y Y Y N P P U L U U P P P P L l U L U L L >.0.0.0.0.",
"0.0.0.! Y Y Y Y Y N K L K L L L I U K I L d J U K P K ,.0.0.0.0.",
"0.0.9.! U L K U K l L K J K L J J K K K K d K K L K K :.0.0.0.0.",
"0.0.9.~ v K K K F k K J F K J F J J J F J 1 J F K K F :.0.0.0.0.",
"0.0.0.~ t b D b K s F F F F F F K b b J J < F J J b F :.0.0.0.0.",
"0.0.0.C < < < < : < :   *.*.*.*.*.=.*.. : < < : : : < { 0.0.0.0.",
"0.0.0.S w w w w w t +.0.0.0.0.0.9.0.0.0.[ w w w w w w @.0.0.0.0.",
"0.0.0.S w 0 0 w w X 0.0.0.0.0.0.0.0.0.0.0.+ w w s w w @.0.0.0.0.",
"0.0.0.C = # w s * 6.0.0.0.0.0.0.0.0.0.0.0.4.& s w < & { 0.0.0.0.",
"0.0.9.W y 9 F F B *.0.0.0.0.0.0.0.0.0.0.0.O.K b D b M ;.9.0.0.0.",
"0.0.0.~ r y b J F *.0.0.0.0.0.0.0.0.0.0.0.O.J D D m m ;.9.0.0.0.",
"0.0.9.~ t y x B J &.0.0.0.0.0.0.0.0.0.0.9.O.M M m F m ;.0.0.0.0.",
"0.0.9.Q u u x L K #.0.0.0.0.0.0.0.0.0.0.9.| ( ( U L ) 3.0.q.0.0.",
"0.0.0.Q 9 u x B F #.9.9.0.0.0.0.0.0.0.0.0.X.B b b D D :.q.0.0.0.",
"0.0.9.Q t y x z B &.0.0.0.0.0.0.0.0.0.0.0.X.b B D D D :.0.0.0.0.",
"0.0.0.C - O @ < * 9.0.0.0.0.0.0.0.0.0.0.0.8.# y 7 7 k @.0.0.0.0.",
"0.0.0.^ 8 8 y y J =.0.0.0.0.0.0.0.0.0.0.0...) ( ) K _ ,.0.0.0.0.",
"0.0.0.A 8 8 t t B #.0.0.0.0.0.0.0.0.0.0.9.| ( ( ) ( ) :.9.0.0.0.",
"0.0.0.A < = 6 6 < #.q.0.0.0.0.0.0.0.0.0.0.o.z x z u z :.9.0.0.0.",
"0.0.0.~ b b b D F & 0.q.0.0.0.0.0.0.0.0.q.f ' ' ' ' ' <.0.0.0.0.",
"0.0.0./ I I U K L & 0.q.0.0.0.0.0.0.0.0.0.f 1.] ] ] ] 2.0.0.0.0.",
"0.0.0.Q t h h h u o 9.q.0.0.0.0.0.0.0.0.0.3 Y F F F L :.0.0.0.0.",
"0.0.0.6.=.=.=.=.4.9.0.0.0.0.0.0.0.0.0.0.0.9.-.=.=.=.=.9.0.0.0.0.",
"0.0.0.0.0.0.9.9.0.0.0.0.0.0.0.0.0.0.0.0.0.0.0.0.9.9.0.0.0.0.0.0.",
"0.0.0.0.0.0.0.0.0.0.0.0.0.0.0.0.0.0.0.0.0.0.0.0.0.0.0.0.0.0.0.0."
};
