/* XPM */
static char *result[] = {
/* columns rows colors chars-per-pixel */
"32 32 123 2 ",
"   c #685B1E",
".  c #70571C",
"X  c #844C12",
"o  c #9B4613",
"O  c #994A10",
"+  c #8B591F",
"@  c #A0410E",
"#  c #A6480C",
"$  c #A04411",
"%  c #A04716",
"&  c #A14916",
"*  c #A34D15",
"=  c #A04E16",
"-  c #AA4F15",
";  c #A04A18",
":  c #A04B18",
">  c #A04A1A",
",  c #A04D19",
"<  c #A0531C",
"1  c #A0551D",
"2  c #A0551E",
"3  c #A96827",
"4  c #A96B2B",
"5  c #A8682D",
"6  c #A97132",
"7  c #CE710E",
"8  c #D27D06",
"9  c #C66612",
"0  c #C96712",
"q  c #CD7010",
"w  c #378836",
"e  c #398A3D",
"r  c #7C8A41",
"t  c #79B04A",
"y  c #79A257",
"u  c #6AC061",
"i  c #868B3E",
"p  c #A48336",
"a  c #A58336",
"s  c #A08536",
"d  c #A98236",
"f  c #AD8036",
"g  c #AE8036",
"h  c #A88437",
"j  c #AE8138",
"k  c #AE823A",
"l  c #AE833B",
"z  c #AE8439",
"x  c #AE863A",
"c  c #AE843D",
"v  c #AE853E",
"b  c #AA8E3E",
"n  c #AE8F3F",
"m  c #A6993A",
"M  c #C68007",
"N  c #D49A06",
"B  c #CF9D10",
"V  c #F68203",
"C  c #FF8800",
"Z  c DarkOrange",
"A  c #FF8F00",
"S  c #FA8E08",
"D  c #F98F0B",
"F  c #FF9100",
"G  c #FF9400",
"H  c #FF9A00",
"J  c #FFA400",
"K  c #FFA700",
"L  c #FFA900",
"P  c #FFAC00",
"I  c #FFAD00",
"U  c #FFAE00",
"Y  c #FEB100",
"T  c #FFB200",
"R  c #FFB300",
"E  c #FFB400",
"W  c #FFBA00",
"Q  c #FFBB00",
"!  c #C0832C",
"~  c #DFAF3A",
"^  c #DDB13D",
"/  c #DEB13C",
"(  c #E4A930",
")  c #FFC000",
"_  c #FFCF00",
"`  c #FFD300",
"'  c #FFD400",
"]  c #FFDB00",
"[  c #FFDD00",
"{  c #FFE100",
"}  c #FFE300",
"|  c #FFEA00",
" . c #FFEC00",
".. c #FFEE00",
"X. c #FFF000",
"o. c #FFF100",
"O. c #8A9F4C",
"+. c #969C44",
"@. c #AE8640",
"#. c #AF8943",
"$. c #B08C41",
"%. c #B09046",
"&. c #B19544",
"*. c #BF8B50",
"=. c #B6A650",
"-. c #B7AB57",
";. c #B8AE56",
":. c #B8AF56",
">. c #B8B15B",
",. c #B9B65D",
"<. c #BCBD60",
"1. c #DBB441",
"2. c #DBB541",
"3. c #D6BB4A",
"4. c #9BCB6A",
"5. c #CFC457",
"6. c #CEC458",
"7. c #CBC95E",
"8. c #CAC95F",
"9. c #C9CB62",
"0. c #C1D570",
"q. c #C6E49E",
"w. c #E9EFAC",
/* pixels */
"0.0.0.0.0.0.0.0.0.0.0.0.0.0.0.0.0.0.0.0.0.0.0.0.0.0.0.0.0.0.0.0.",
"0.0.0.0.0.0.0.0.0.0.0.0.0.0.0.0.0.0.0.0.0.0.0.0.0.0.0.0.0.0.0.0.",
"0.0.0.0.0.0.0.0.0.0.0.0.0.0.0.0.0.0.0.0.0.0.0.0.0.0.0.0.0.0.0.0.",
"0.0.0.0.0.0.0.0.0.0.0.0.y 0.0.0.0.0.0.0.0.0.0.0.0.y 0.y 0.0.0.0.",
"0.0.0.0.0.0.0.0.0.0.0.O.( ( ( ( ( ( ( ( 9.0.0.0.0.0.y 0.0.0.0.0.",
"0.0.0.0.0.0.0.0.0.0.0.+.C C Z ) ) ) ) F 5.0.0.0.0.0.0.0.0.0.0.0.",
"0.0.0.0.y 0.0.0.0.0.0.6.C C A o.' ` ..H 5.0.0.0.0.0.0.0.0.0.0.0.",
"0.0.0.0.0.y 0.0.0.0.0.6.C C A X.E T | H 5.0.0.0.0.0.0.0.0.0.0.0.",
"0.0.0.0.0.y 0.0.0.0.y 6.C C A X.E T | H 5.0.0.0.0.0.0.0.0.0.0.0.",
"0.0.0.0.0.0.8.3.3.m 3.~ C C A X.E T | H ~ 3.3.3.3.7.0.0.0.0.0.0.",
"0.0.0.0.0.0.^ C C F K K K K P X.E T | R K K K K G / 0.0.0.0.0.0.",
"0.0.0.0.0.0.^ C C L ..} } } } { R T [ } } } }  .R / 0.0.0.0.0.0.",
"0.0.0.0.0.0.^ C C L { T T T T T T T T T T T T ] R / 0.0.0.0.0.0.",
"0.0.0.0.0.0.^ C C J ' P P P I Q T T W U P P P _ I / 0.0.0.0.0.0.",
"0.0.0.0.0.0.1.D D D D S C C A X.E T | H S D D D D 2.0.0.0.0.0.0.",
"0.0.0.0.0.0.0.0.0.0.0.6.C C A X.E T | H 5.0.0.0.0.0.0.0.0.0.0.0.",
"0.0.0.0.0.0.0.0.0.0.0.6.C C A X.E T | H 5.0.0.0.0.0.0.0.0.0.0.0.",
"0.0.0.0.0.0.0.0.0.0.0.6.C C A X.E T | H 5.0.0.0.0.0.0.0.0.0.0.0.",
"0.0.0.0.0.0.0.0.0.0.0.6.C C A X.E T | H 5.0.0.0.0.0.0.0.0.0.0.0.",
"0.0.0.0.0.0.0.0.0.0.0.6.C C A X.E T | H 5.0.0.0.0.0.0.w.0.w.0.0.",
"0.0.0.0.0.0.0.0.0.0.0.6.C C A X.E T | H 5.0.0.0.0.0.0.0.w.0.0.0.",
"0.0.0.0.0.0.0.w.0.0.0.6.C C A X.E T | H 5.0.0.0.0.0.0.0.0.0.0.0.",
"0.0.0.0.0.0.w.0.0.0.0.6.C C A X.E T | H 5.0.0.0.0.0.0.0.0.0.0.0.",
"0.0.0.w.0.0.w.0.0.0.0.6.C C A X.E T | H 5.0.0.0.0.0.0.0.0.0.0.0.",
"0.0.0.0.w.0.w.0.0.0.0.6.C C A X.E T | H 5.u 4.0.0.0.0.0.0.0.0.0.",
"0.0.0.0.w.0.0.0.0.0.q.t V 0 q X.E T | H ! e r #.,.0.0.0.0.0.0.0.",
"0.0.0.0.w.>.%.-.0.<.i w 9 2 * B Y T N 7 - . + , 6 $.;.0.0.0.0.0.",
"0.0.0.0.:.4 > 5 &.h X   ; 1 @ & M 8 # < : % = O o $ 3 ;.0.0.0.0.",
"0.0.0.0.=.g l c x b p *.j @.g g s f g n z v k a d g g =.0.0.0.0.",
"0.0.0.0.0.0.0.0.0.0.0.0.0.0.0.0.0.0.0.0.0.0.0.0.0.0.0.0.0.0.0.0.",
"0.0.0.0.0.0.0.0.0.0.0.0.0.0.0.0.0.0.0.0.0.0.0.0.0.0.0.0.0.0.0.0.",
"0.0.0.0.0.0.0.0.0.0.0.0.0.0.0.0.0.0.0.0.0.0.0.0.0.0.0.0.0.0.0.0."
};
