/* XPM */
static char *cGxheWVyX2JhY2s_[] = {
/* columns rows colors chars-per-pixel */
"34 34 173 2 ",
"   c #7F0E0D",
".  c #66061F",
"X  c #6D091A",
"o  c #6A071C",
"O  c #720C17",
"+  c #7B0C11",
"@  c #791D19",
"#  c #761919",
"$  c #79221C",
"%  c #53012D",
"&  c #580B2D",
"*  c #530731",
"=  c #55153B",
"-  c #610423",
";  c #681A28",
":  c #721D25",
">  c #62222E",
",  c #692E2E",
"<  c #6D272B",
"1  c #722421",
"2  c #782922",
"3  c #6B312E",
"4  c #73352E",
"5  c #743B2F",
"6  c #662F32",
"7  c #672836",
"8  c #653137",
"9  c #61313C",
"0  c #68373A",
"q  c #723D34",
"w  c #782C38",
"e  c #7A422F",
"r  c #7C4430",
"t  c #7E4933",
"y  c #754439",
"u  c #541C41",
"i  c #5E2E45",
"p  c #572141",
"a  c #5D3445",
"s  c #5A344A",
"d  c #5B364E",
"f  c #533655",
"g  c #563A57",
"h  c #593E57",
"j  c #593F58",
"k  c #673B45",
"l  c #5C4358",
"z  c #6C4546",
"x  c #624B59",
"c  c #60475E",
"v  c #67525B",
"b  c #6B595C",
"n  c #69525D",
"m  c #705F5D",
"M  c #6F605C",
"N  c #74655E",
"B  c #776A5E",
"V  c #796C5F",
"C  c #544261",
"Z  c #554867",
"A  c #55506F",
"S  c #5F5367",
"D  c #5E5A70",
"F  c #7C4F61",
"G  c #695162",
"H  c #625A69",
"J  c #605971",
"K  c #795D67",
"L  c #7B6F60",
"P  c #7E7461",
"I  c #68747B",
"U  c #800E0C",
"Y  c #861109",
"T  c #8A100B",
"R  c #850B1C",
"E  c #950F14",
"W  c #990F16",
"Q  c #9C0F19",
"!  c #821411",
"~  c #9B111C",
"^  c #A30F1E",
"/  c #872419",
"(  c #932616",
")  c #953118",
"_  c #9E0C25",
"`  c #9C182B",
"'  c #A50F21",
"]  c #AB0F24",
"[  c #AC0D2A",
"{  c #B60E2D",
"}  c #A41021",
"|  c #AA1333",
" . c #883A24",
".. c #9B411B",
"X. c #B5501E",
"o. c #8E4F2B",
"O. c #8D4526",
"+. c #8F552F",
"@. c #844C30",
"#. c #84443C",
"$. c #804E39",
"%. c #865336",
"&. c #8A5431",
"*. c #8E5933",
"=. c #8D5C3B",
"-. c #82523B",
";. c #915C33",
":. c #B05634",
">. c #936036",
",. c #956439",
"<. c #97683C",
"1. c #996B3D",
"2. c #8C5F40",
"3. c #8E6141",
"4. c #926742",
"5. c #966C43",
"6. c #9A6E42",
"7. c #8D744B",
"8. c #9B7244",
"9. c #9B7549",
"0. c #9F794A",
"q. c #887654",
"w. c #AD694E",
"e. c #A07947",
"r. c #A37D4A",
"t. c #837C62",
"y. c #807660",
"u. c #8E7E77",
"i. c #8C6778",
"p. c #CD7349",
"a. c #D47758",
"s. c #C06F60",
"d. c #CD7E66",
"f. c #779C58",
"g. c #78A158",
"h. c #70817E",
"j. c #A6824E",
"k. c #8A8663",
"l. c #949566",
"z. c #999B67",
"x. c #908178",
"c. c #9FA468",
"v. c #A1A668",
"b. c #A4AC69",
"n. c #AAB46B",
"m. c #ACB76B",
"M. c #B1BD6C",
"N. c #C58E73",
"B. c #B4C36D",
"V. c #BBCE6F",
"C. c #BFD370",
"Z. c #C4CD72",
"A. c #C0D470",
"S. c #6E7583",
"D. c #919F93",
"F. c #888C93",
"G. c #96A497",
"H. c #A1AE9D",
"J. c #BEB991",
"K. c #B6A595",
"L. c #A2A2AF",
"P. c #E49182",
"I. c #F09E8F",
"U. c #D7A486",
"Y. c #F0A89A",
"T. c #F9B5A6",
"R. c #BEC3B2",
"E. c #CACABA",
"W. c #E8EEAA",
"Q. c #DEDACC",
"!. c #D3D8D5",
"~. c #E1DED1",
"^. c None",
/* pixels */
"A.A.A.A.A.A.A.A.C.C.C.A.A.A.C.C.C.C.C.C.C.C.C.C.C.C.A.A.A.A.A.A.A.A.",
"A.A.A.A.A.A.A.A.C.C.A.A.C.t.l l C.c.l l l C.C.C.C.C.C.C.A.A.A.A.A.A.",
"A.A.A.A.A.A.A.A.C.C.B.z.g f f d f f d f f f M B.C.C.C.C.A.A.A.A.A.A.",
"A.A.A.A.A.A.A.A.C.c.f f s 0 5 5 s 9 5 4 4 s f f k.g.C.g.A.A.A.A.A.A.",
"A.A.A.A.A.A.A.A.c.g a z e =.1.1.e t >.1.1.r y 9 s k.g.C.A.A.A.A.A.A.",
"A.A.A.A.A.A.A.A.c.l a y e *.<.,.;.,.j.j.<.*.5 9 f f P C.A.A.A.A.A.A.",
"A.A.A.A.g.A.A.A.P f f 8 e 1.j.0.8.>.>.>.5 3 &.%.t 0 f V A.A.A.A.A.A.",
"A.A.A.A.A.g.A.t.f 6 3 ,.j.j.j.j.&.t j.j.j.j.t 3 a f l A.A.A.A.A.A.A.",
"A.A.A.A.A.g.A.A.M f d t ;.1.j.6.5.@.e 5.e.e.j.6.r s h M.C.C.C.C.A.A.",
"A.A.A.A.A.A.A.A.M s -.4.<.@.t e 4 @.5 e t ;.8.=.>.e a x b.C.A.C.A.A.",
"A.A.A.A.A.A.n.t.l 6 -.r t =.=.+.q 8.,.1.3.*.>.r e z a l b.A.A.A.A.A.",
"A.A.A.A.A.M.x f f 6 6 e >.j.1.0.*.j.1.e.j.&.r w.:.d l n.C.A.A.A.A.A.",
"A.A.A.A.A.l f a 8 0.X.N.+.;.4 j.*.1.1.0.;.&.q N.p.a l A.A.A.A.A.A.A.",
"A.A.A.A.f f a 3.r.e.+... .5 , j.+.<.<.+.&.#.s. .z f B.C.A.A.A.A.A.A.",
"A.A.A.b.f a =.5.%.2 1 $  .4 3 +.4 ,.t %., a.#.C j C h b.A.A.A.A.A.A.",
"A.A.A.v f q 5.q 1 ~ ~   X ( ; e O.t e e $ ) D F.L.S.Z l b.A.A.A.A.A.",
"C.C.k.l 9 4.-.$ ~ { { Q E ' R @ : 5 e @ ' ` S.J.~.!.I Z x v.A.A.A.A.",
"C.C.P f , 9.3 @ ] { { ] Q { ] [   $ $ ^ { | S D.!.~.G.A g l.A.A.A.A.",
"C.C.L f , 9., @ ] { { ' Q { { { { ' ~ { { [ = H D.H.h.A g l.A.A.A.A.",
"A.A.L f , 5., @ ^ ] ' O o ' { { { { { { { Y % = p i Z f y.W.A.A.A.A.",
"A.A.z.l a 4 4 1 O O X % - _ { { { { { { { X u X E Q Y f u.A.A.A.A.A.",
"A.A.C.v f u , , > % % % & R { { { { { { Q : n R [ { Y f y.A.A.A.A.A.",
"A.A.C.m.f f p 3 4 > > ; < / T { { { { W T @.J w ] E i n M.A.A.A.A.A.",
"A.C.C.W.V.f f = * % * g <  .+.T T T T O.&./ K.Y.I.( f b A.A.A.A.A.A.",
"A.A.A.A.W.M.G l f f f l 7 T O.o.o.o.o.o.Y ! F P.T.K l B.C.A.A.A.A.A.",
"A.A.A.A.W.A.C.l.B B u.v.7 ! Y Y +     Y Y 1 f i.U.Z.f G A.A.A.A.A.A.",
"A.A.A.A.W.A.C.C.A.A.C.J.f : W Y o o + W Y g G b L k.f l.A.A.A.A.A.A.",
"A.A.A.A.A.A.A.C.A.A.C.J.f : [ '   . E { T f B M.b f c.C.A.A.A.A.A.A.",
"A.A.A.A.A.A.A.A.A.A.A.J.f 8 ! T + . Y T < f N A.B.B.A.A.A.A.A.A.A.A.",
"A.A.A.A.A.A.A.A.A.A.A.b.g 9 &.3 8 a 3 @.3 g V C.A.A.A.A.A.A.A.A.A.A.",
"A.A.A.A.A.A.A.A.A.A.A.A.z.k @.@.k z y @.8 B A.A.A.A.A.A.A.A.A.A.A.A.",
"A.A.A.A.A.A.A.A.A.A.A.A.C.z.7.7.k.n.q.7.t.A.A.A.A.A.A.A.A.A.A.A.A.A.",
"^.^.^.^.^.^.^.^.^.^.^.^.^.^.^.^.^.^.^.^.^.^.^.^.^.^.^.^.^.^.^.^.^.^.",
"^.^.^.^.^.^.^.^.^.^.^.^.^.^.^.^.^.^.^.^.^.^.^.^.^.^.^.^.^.^.^.^.^.^."
};
