/* XPM */
static char *cGxheWVyX2xlZnQ_[] = {
/* columns rows colors chars-per-pixel */
"34 34 185 2 ",
"   c #7D0D0F",
".  c #6E0919",
"X  c #6A071C",
"o  c #760B14",
"O  c #760B14",
"+  c #791217",
"@  c #53012D",
"#  c #590A2B",
"$  c #5D132C",
"%  c #591638",
"&  c #52153D",
"*  c #550E33",
"=  c #691828",
"-  c #73192A",
";  c #5F2E3D",
":  c #452425",
">  c #62212E",
",  c #662A2E",
"<  c #682E2E",
"1  c #7B2B27",
"2  c #6E332E",
"3  c #753C2F",
"4  c #7A3D2F",
"5  c #602137",
"6  c #643036",
"7  c #6C3633",
"8  c #6F3B35",
"9  c #61313C",
"0  c #6B3639",
"q  c #733B31",
"w  c #71253B",
"e  c #7A412F",
"r  c #7B4431",
"t  c #73433C",
"y  c #7C4C3B",
"u  c #7D4A37",
"i  c #541D43",
"p  c #591F44",
"a  c #532D4F",
"s  c #5D3244",
"d  c #57344E",
"f  c #59344B",
"g  c #533655",
"h  c #563956",
"j  c #543C5B",
"k  c #593F5B",
"l  c #583C57",
"z  c #643943",
"x  c #5D445B",
"c  c #744048",
"v  c #614958",
"b  c #744450",
"n  c #67535B",
"m  c #69565B",
"M  c #6D5B5C",
"N  c #7F5649",
"B  c #646657",
"V  c #72635D",
"C  c #7A6E5F",
"Z  c #75685E",
"A  c #7B705F",
"S  c #5F566E",
"D  c #5D5368",
"F  c #595D77",
"G  c #554A68",
"H  c #794D61",
"J  c #685669",
"K  c #6C4E67",
"L  c #5E6275",
"P  c #65616E",
"I  c #7D7360",
"U  c #666C7C",
"Y  c #6C6774",
"T  c #756876",
"R  c #6A747E",
"E  c #6E7E7E",
"W  c #74777B",
"Q  c #756069",
"!  c #810F0B",
"~  c #830C18",
"^  c #891513",
"/  c #96250C",
"(  c #933E1F",
")  c #A83B0F",
"_  c #8B082D",
"`  c #8C0B20",
"'  c #911429",
"]  c #A60E23",
"[  c #AC0E25",
"{  c #B50E2C",
"}  c #A71A31",
"|  c #882D28",
" . c #87342E",
".. c #BE3427",
"X. c #C1293E",
"o. c #9B441F",
"O. c #A1461C",
"+. c #B85315",
"@. c #8B4A2A",
"#. c #9D4B20",
"$. c #824C32",
"%. c #824E3A",
"&. c #8B4233",
"*. c #8A5331",
"=. c #8E5831",
"-. c #8D5C39",
";. c #865438",
":. c #915C33",
">. c #974F2F",
",. c #B9562E",
"<. c #95653A",
"1. c #98693C",
"2. c #BA612E",
"3. c #C4661C",
"4. c #8A5D40",
"5. c #B85347",
"6. c #8F6442",
"7. c #966C44",
"8. c #9A6F41",
"9. c #906442",
"0. c #9D7343",
"q. c #A27C49",
"w. c #BD655B",
"e. c #837B61",
"r. c #C54142",
"t. c #C96A4C",
"y. c #C07164",
"u. c #C17D7A",
"i. c #CC6972",
"p. c #769B58",
"a. c #78A158",
"s. c #A6834E",
"d. c #8A8563",
"f. c #898463",
"g. c #908F65",
"h. c #919065",
"j. c #999C67",
"k. c #9C917F",
"l. c #9EA368",
"z. c #9CA067",
"x. c #A4AB69",
"c. c #A7B16A",
"v. c #ABB56B",
"b. c #B1BF6D",
"n. c #D6944F",
"m. c #DD8061",
"M. c #D98874",
"N. c #B4C36D",
"B. c #BACC6E",
"V. c #BFD270",
"C. c #C0D470",
"Z. c #6D7381",
"A. c #797F89",
"S. c #686A84",
"D. c #817D80",
"F. c #798487",
"G. c #599FB4",
"H. c #81808F",
"J. c #95848D",
"K. c #8D948F",
"L. c #9B8C92",
"P. c #99969D",
"I. c #959C98",
"U. c #ADA695",
"Y. c #9192A5",
"T. c #AAAFA4",
"R. c #B1AEAC",
"E. c #B3B9AA",
"W. c #BAB9B8",
"Q. c #A6B3A1",
"!. c #DA9E93",
"~. c #D3958D",
"^. c #EE9482",
"/. c #F19C8B",
"(. c #E5A696",
"). c #C0BAB3",
"_. c #E0B3AC",
"`. c #FBBDAF",
"'. c #F5BFB1",
"]. c #C0C4B3",
"[. c #D1CABD",
"{. c #E8EEAA",
"}. c #D7D7CB",
"|. c #F4F3EE",
" X c None",
/* pixels */
"C.C.C.C.C.C.C.C.C.C.C.C.C.C.C.C.C.c.N.V.C.C.C.C.C.C.C.C.C.C.C.C.C.C.",
"C.C.C.C.C.C.C.C.C.C.C.C.C.C.C.V.c.n V B.C.C.C.C.C.C.C.C.C.C.C.C.C.C.",
"C.C.C.C.C.C.C.C.C.C.C.C.C.I V.N.v s g n V.C.C.C.C.C.C.C.C.C.C.C.C.C.",
"C.C.C.C.C.C.C.C.C.C.C.C.B h h g s e 3 g l V C.C.C.a.C.a.C.C.C.C.C.C.",
"C.C.C.C.C.C.C.C.C.C.B.B g 7 d d r :.4 f g d A B.C.C.a.C.C.C.C.C.C.C.",
"C.C.C.C.C.C.C.C.C.C.x.g 9 $.4 s y 0.*.4 3 8 d A B.C.C.C.C.C.C.C.C.C.",
"C.C.C.C.a.C.C.C.C.C.x.g 9 <.=.r -.s.;.*.0.<.8 d A V.C.C.C.C.C.C.C.C.",
"C.C.C.C.C.a.C.C.C.V.B.e.g 8 q.8.<.s.<.q.<.<.*.8 h V C.C.C.C.C.C.C.C.",
"C.C.C.C.C.a.C.C.C.C.a.h.h 6 7 4 :.1.u 7 *.t =.e f g V.V.C.C.C.C.C.C.",
"C.C.C.C.C.C.C.C.C.p.x.d 9 *.=.<.s.1.e =.=.7.r :.2 g m C.C.C.C.C.C.C.",
"C.C.C.C.v.C.C.C.C.p.n f t $.:.q.7.0.1.s.<.s.-.r 0 g I V.C.C.C.C.C.C.",
"C.C.C.h.k z.C.C.C.C.b.M g 6 8.*.r s.0.1.1.1.-.;.z g j.V.C.C.C.C.C.C.",
"C.C.d.h L.x k.C.C.C.C.h.g 6 =.#.e 1.0.r =.:.r 1.t g n V.C.C.C.C.C.C.",
"C.C.M g E.L.K x.C.C.C.h.g 6 =.: q =.r o.e @.r :.2 g n V.C.C.C.C.C.C.",
"C.C.M g p.A.D.j b.C.C.C.e.g < G.w.r 3 M.'.=.o.r 3 , g A V.V.C.C.C.C.",
"C.C.C g Y.A.D.K x.C.C.C.e.l O./.!.%.M.`.(.| o.3 7.s.8 g f.V.C.C.C.C.",
"C.C.C.k x F.P.T g C.C.C.V.d.h u.'.~.!.m.+.2.. = 4 9.7.t g f.B.C.C.C.",
"C.C.C.g.j T F.L.x f.C.C.C.h.g @.t.w.5.3.n.,.~ X = < $.9.s g B.C.C.C.",
"C.C.C.C.g P F.R.x x C.C.C.m g / / O.+...r.[ _ o o # q 9.y d M C.C.C.",
"C.C.C.C.c.g P U ).g Z C.V.M j + v D | } { [ . @     < %.%.f g C.C.C.",
"C.C.C.C.N.x T R ).k g e.N.m g S.Q.}.Y.} { [ . @ O ! < y ;.d h C.C.C.",
"C.C.C.C.C.l.d W F }.g j g g x F.].[.|.Z.{ ] + ' # # < y y d h C.C.C.",
"C.C.C.C.C.v.Q Q U Y.S P g g g Y T.E.W.b { ~  .,.= 2 2 4 6 d e.V.C.C.",
"C.C.C.{.C.C.L.g L F A.D.g g @ i J R b ! ' 1 z  .2 < < % a f.V.C.C.C.",
"C.C.C.C.{.x.x G R p.P.!.!.'   ~ ' = 4 @.@.$ , < < *.* g e.B.C.C.C.C.",
"C.C.C.C.{.C.d.g g g 4././.X.{ { [ X > < ! @ @ @ @ @ h A C.C.C.C.C.C.",
"C.C.C.C.{.C.C.e.m n K _.i.' } } 1 @ @   { ~ % g g g Z C.C.C.C.C.C.C.",
"C.C.C.C.C.C.C.C.C.B.h D Y.K = 1 N @ @ @ _ [ ~ % g g V.V.C.C.C.C.C.C.",
"C.C.C.C.C.C.C.C.C.V.e.j D j g 9 $ @ i i i _ [ ~ % g g.C.C.C.C.C.C.C.",
"C.C.C.C.C.C.C.C.V.V.B.e.g g 6 < , = a g g p - ~ # g n C.C.C.C.C.C.C.",
"C.C.C.C.C.C.C.C.V.V.V.V.B.B.x , < s j.x d 2 *.3 , g n C.C.C.C.C.C.C.",
"C.C.C.C.C.C.C.C.V.V.V.V.V.V.C.V.V.V.V.V.v 3 *.*.2 x C.C.C.C.C.C.C.C.",
" X X X X X X X X X X X X X X X X X X X X Xd < < d  X X X X X X X X X",
" X X X X X X X X X X X X X X X X X X X X X X X X X X X X X X X X X X"
};
