/* XPM */
static char *cGxheWVyX3JpZ2h0[] = {
/* columns rows colors chars-per-pixel */
"34 34 185 2 ",
"   c #7E0D0E",
".  c #6A071C",
"X  c #6F0918",
"o  c #760C15",
"O  c #75151D",
"+  c #53002D",
"@  c #5B0C2D",
"#  c #570B2D",
"$  c #5D162E",
"%  c #520330",
"&  c #520F38",
"*  c #5C0D31",
"=  c #521039",
"-  c #630D24",
";  c #640A28",
":  c #61102B",
">  c #781C22",
",  c #651831",
"<  c #78062D",
"1  c #5C2C3F",
"2  c #422726",
"3  c #662B2E",
"4  c #682D2D",
"5  c #64262E",
"6  c #702029",
"7  c #6B322F",
"8  c #743C2F",
"9  c #793B2D",
"0  c #75342B",
"q  c #692B34",
"w  c #6D3530",
"e  c #63323A",
"r  c #683538",
"t  c #733E34",
"y  c #7A422F",
"u  c #7C4531",
"i  c #7D4B38",
"p  c #532C4E",
"a  c #532347",
"s  c #5E3342",
"d  c #57344E",
"f  c #59344A",
"g  c #542E52",
"h  c #533655",
"j  c #563A57",
"k  c #553C5A",
"l  c #583C59",
"z  c #683942",
"x  c #5D4559",
"c  c #58445A",
"v  c #714440",
"b  c #624B5A",
"n  c #6D5C5C",
"m  c #68555B",
"M  c #6C4D56",
"N  c #72635D",
"B  c #76695E",
"V  c #796C5F",
"C  c #5B4C63",
"Z  c #564665",
"A  c #5A5B76",
"S  c #5A526B",
"D  c #644E65",
"F  c #67596B",
"G  c #735C70",
"H  c #7D7360",
"J  c #646B7B",
"K  c #776876",
"L  c #6A737B",
"P  c #6F7E7D",
"I  c #78777C",
"U  c #76626A",
"Y  c #800E0C",
"T  c #83100C",
"R  c #921F0B",
"E  c #960E19",
"W  c #811612",
"Q  c #921011",
"!  c #A5101F",
"~  c #892013",
"^  c #A73F12",
"/  c #80062D",
"(  c #9C1221",
")  c #AB0E25",
"_  c #A50C2D",
"`  c #B50E2C",
"'  c #B3102F",
"]  c #A61734",
"[  c #862F21",
"{  c #903C23",
"}  c #9B2C36",
"|  c #C3373C",
" . c #93401F",
".. c #B9521A",
"X. c #A74C1A",
"o. c #8E502C",
"O. c #824B31",
"+. c #884235",
"@. c #8B5431",
"#. c #8F5932",
"$. c #85543B",
"%. c #8A5A3B",
"&. c #905C33",
"*. c #8C4224",
"=. c #BF4023",
"-. c #BF5D25",
";. c #95653A",
":. c #9A6D3F",
">. c #946338",
",. c #B4623A",
"<. c #C86337",
"1. c #923A57",
"2. c #8B5F41",
"3. c #8A5147",
"4. c #B2534A",
"5. c #946A43",
"6. c #9B6E40",
"7. c #9D7343",
"8. c #9C7549",
"9. c #8C7050",
"0. c #A17C4A",
"q. c #A07947",
"w. c #B57259",
"e. c #85606D",
"r. c #827A61",
"t. c #BD7064",
"y. c #A3676C",
"u. c #CE4B52",
"i. c #CB6840",
"p. c #759858",
"a. c #78A158",
"s. c #A6824E",
"d. c #898463",
"f. c #898463",
"g. c #908F64",
"h. c #979967",
"j. c #9A9D67",
"k. c #979966",
"l. c #9EA268",
"z. c #9DA167",
"x. c #A3AB69",
"c. c #ABB56B",
"v. c #AFBB6C",
"b. c #B0BD6C",
"n. c #CF8440",
"m. c #D8954A",
"M. c #E58D77",
"N. c #B4C36D",
"B. c #BBCD6F",
"V. c #BDD06F",
"C. c #BED270",
"Z. c #C0D470",
"A. c #6F7881",
"S. c #777886",
"D. c #887582",
"F. c #7E8589",
"G. c #4995AB",
"H. c #8C8C96",
"J. c #8E9292",
"K. c #A29397",
"L. c #9AA598",
"P. c #A0A69B",
"I. c #9798AA",
"U. c #A6A5A3",
"Y. c #A8B2A3",
"T. c #B8BFAD",
"R. c #B8B9B4",
"E. c #BAAFAA",
"W. c #D2908F",
"Q. c #C98B82",
"!. c #EC9886",
"~. c #F1B09B",
"^. c #E5A89F",
"/. c #C0B7B0",
"(. c #D6A8A5",
"). c #F8B3A4",
"_. c #FCBFB1",
"`. c #E9B2A8",
"'. c #BFC7BA",
"]. c #F7C1B6",
"[. c #E8EEAA",
"{. c #BDBDC7",
"}. c #D9D4C4",
"|. c #E9E7DE",
" X c None",
/* pixels */
"Z.Z.Z.Z.Z.Z.Z.Z.Z.Z.Z.Z.Z.Z.Z.Z.x.N.C.C.C.Z.Z.Z.Z.Z.Z.Z.Z.Z.Z.Z.Z.Z.",
"Z.Z.Z.Z.Z.Z.Z.Z.Z.Z.Z.Z.Z.Z.C.x.m n C.C.C.C.Z.Z.Z.Z.Z.Z.Z.Z.Z.Z.Z.Z.",
"Z.Z.Z.Z.Z.Z.Z.Z.Z.Z.Z.Z.Z.C.v.x s d b C.x.g.C.C.Z.Z.Z.Z.Z.Z.Z.Z.Z.Z.",
"Z.Z.Z.Z.Z.Z.Z.Z.Z.Z.Z.C.a.h h s y 8 h j j h j.V.Z.a.Z.a.Z.Z.Z.Z.Z.Z.",
"Z.Z.Z.Z.Z.Z.Z.Z.C.Z.Z.p.b d d z O.>.7 j s e h z.Z.Z.a.Z.Z.Z.Z.Z.Z.Z.",
"Z.Z.Z.Z.Z.Z.Z.Z.C.C.v.c f y 9 y #.0.7 s i u f h Z.Z.Z.Z.Z.Z.Z.Z.Z.Z.",
"Z.Z.Z.Z.a.Z.Z.Z.C.v.m f y 7.:.@.5.s.O.O.>.$.s j Z.Z.Z.Z.Z.Z.Z.Z.Z.Z.",
"Z.Z.Z.Z.Z.a.Z.Z.B.m f u @.>.;.:.:.s.>.7.;.z j h.Z.Z.Z.Z.Z.Z.Z.Z.Z.Z.",
"Z.Z.Z.Z.Z.a.Z.Z.N.h s O.#.4 @.7 %.>.#.w 7 s h b.Z.Z.Z.Z.Z.Z.Z.Z.Z.Z.",
"Z.Z.Z.Z.Z.Z.Z.Z.j f y @.8 s.&.O.O.8.s.&.@.O.s h N.Z.Z.Z.Z.Z.Z.Z.Z.Z.",
"Z.Z.Z.Z.Z.Z.Z.Z.N d t t 8.q.:.q.7.:.5.7.&.$.r h V Z.Z.Z.Z.V.x.C.Z.Z.",
"Z.Z.Z.Z.Z.Z.Z.Z.r.h v u ;.:.:.:.0.7.7 &.%.s h r.C.C.Z.Z.Z.g.c z.Z.Z.",
"Z.Z.Z.Z.Z.Z.Z.Z.j f %.;.u ;.o.O.q.>.7 X.O.s h v.Z.Z.Z.Z.d.l K.b z.C.",
"Z.Z.Z.Z.Z.Z.Z.Z.h f u &.7 &.9 { O.&.7 2 u s h b.Z.Z.Z.d.j E.L.h d.Z.",
"Z.Z.Z.Z.Z.C.B.x h 7 u 8 X.#._.t.O.t M.G.z h j.Z.Z.Z.k.h E.A P h d.C.",
"Z.Z.Z.Z.Z.N.m d u s.$.8 ^ 0 ~.).w.3.].M.{ b x.Z.Z.B.d.D K.J H.x k.Z.",
"Z.C.C.C.v.N d i 6.%.0 -   n.-.M.Q.`.).y.b l.C.Z.Z.c.h K.S.J.h N Z.Z.",
"Z.C.C.C.h.j e s.t 5 - . E ,.m.-.4.4.i.+.x z.C.Z.C.B G H.S.K c l.Z.Z.",
"Z.Z.C.N.x f 2.;.5 - Y - _ ) | =...^ R ~ j d.Z.C.C.h D.H.J.l b C.Z.Z.",
"Z.Z.C.v.j e 5.w 4 Y X +   ` ' ! r A j W j f.Z.C.l F U.L C j C.C.Z.Z.",
"Z.Z.Z.v.h 1 5.w 6   . +   ` ` 1.{.'.P.A d H v.x j K L.F.C x Z.Z.Z.Z.",
"Z.Z.C.v.h 1 ;.w 4 @ @ > o ` ] I.|.}.'.P c j h c l R.J F j B.Z.Z.Z.Z.",
"C.C.C.B.B f r y 4 3 [ <., ! ] e.R.E.Y.S g h h A.C H.L D H C.Z.Z.Z.Z.",
"Z.C.C.[.N.B p , 4 4 0 +.@ *.Q W M J C & = h h L.A.A S h c.Z.Z.Z.Z.Z.",
"Z.Z.Z.Z.[.V.U h @ O.4 4 3 # o.o.q O _ Y   4.`.!.L.A.J c c B.Z.Z.Z.Z.",
"Z.Z.Z.Z.[.Z.C.b h + + + + + W 4 * o ` ` ` u.!.!.h j h c c.C.Z.Z.Z.Z.",
"Z.Z.Z.Z.[.Z.C.C.m j j p @ Q ) . + + { _ E } W.(.j n n l.Z.Z.Z.Z.Z.Z.",
"Z.Z.Z.Z.Z.Z.Z.Z.N.h p : E ' / + + + 9.> q I F.k k C.C.C.Z.Z.Z.Z.Z.Z.",
"Z.Z.Z.Z.Z.Z.Z.Z.V p : E ` < a a & + $ s h c C h k.Z.Z.Z.Z.Z.Z.Z.Z.Z.",
"Z.Z.Z.Z.Z.Z.Z.Z.h a . > ; p h h 1 5 4 4 s h h z.Z.Z.Z.Z.Z.Z.Z.Z.Z.Z.",
"Z.Z.Z.Z.Z.Z.Z.Z.h f 3 O.@.3 j H r.e 7 3 N C.C.C.Z.Z.Z.Z.Z.Z.Z.Z.Z.Z.",
"Z.Z.Z.Z.Z.Z.Z.Z.N.M t @.@.e V Z.Z.Z.C.C.Z.Z.Z.Z.Z.Z.Z.Z.Z.Z.Z.Z.Z.Z.",
" X X X X X X X X X Xs 7 4 j  X X X X X X X X X X X X X X X X X X X X",
" X X X X X X X X X X X X X X X X X X X X X X X X X X X X X X X X X X"
};
