/* XPM */
static char *cGxheWVyX2Zyb250[] = {
/* columns rows colors chars-per-pixel */
"34 34 182 2 ",
"   c #7A1C18",
".  c #791B1B",
"X  c #79241C",
"o  c #570A2D",
"O  c #5E162F",
"+  c #531339",
"@  c #560F32",
"#  c #631C2E",
"$  c #7B1C24",
"%  c #6A2F2E",
"&  c #66242D",
"*  c #702F2F",
"=  c #6E342E",
"-  c #743C2F",
";  c #7A3F2E",
":  c #70372F",
">  c #652636",
",  c #672A37",
"<  c #6B3331",
"1  c #68383B",
"2  c #753D31",
"3  c #763E38",
"4  c #7A422F",
"5  c #7C4632",
"6  c #764439",
"7  c #313847",
"8  c #521B41",
"9  c #53284B",
"0  c #5D3344",
"q  c #57354F",
"w  c #5A334A",
"e  c #5E384E",
"r  c #532F50",
"t  c #533655",
"y  c #553956",
"u  c #593C57",
"i  c #543B5B",
"p  c #593E59",
"a  c #682C45",
"s  c #653744",
"d  c #643F50",
"f  c #703543",
"g  c #5D4359",
"h  c #554B54",
"j  c #624C5A",
"k  c #664354",
"l  c #6E5D5C",
"z  c #66515B",
"x  c #7A5855",
"c  c #714247",
"v  c #73655E",
"b  c #776B5F",
"n  c #544261",
"m  c #594764",
"M  c #595572",
"N  c #725163",
"B  c #5E6074",
"V  c #7A6E60",
"C  c #7E7460",
"Z  c #63697B",
"A  c #76777B",
"S  c #746A76",
"D  c #861109",
"F  c #8B100D",
"G  c #950F13",
"H  c #9C0F19",
"J  c #921513",
"K  c #88190E",
"L  c #A10F1C",
"P  c #942817",
"I  c #912311",
"U  c #AA3D10",
"Y  c #8B1D31",
"T  c #AB0E25",
"R  c #AB0F25",
"E  c #B50E2C",
"W  c #AC112D",
"Q  c #AA1025",
"!  c #B7162D",
"~  c #852D24",
"^  c #8A203F",
"/  c #BF2F33",
"(  c #AF2A28",
")  c #9D431B",
"_  c #AA4617",
"`  c #BB5D17",
"'  c #AE4D1A",
"]  c #87472A",
"[  c #834C31",
"{  c #884F30",
"}  c #8B5532",
"|  c #8F5931",
" . c #8A5A3B",
".. c #855135",
"X. c #915C33",
"o. c #905E38",
"O. c #BC5729",
"+. c #BA5733",
"@. c #AD4829",
"#. c #946136",
"$. c #94643A",
"%. c #996C3E",
"&. c #A76531",
"*. c #C8552E",
"=. c #C76A3C",
"-. c #BF5341",
";. c #A55C52",
":. c #8D6041",
">. c #9A6F41",
",. c #946844",
"<. c #9C7243",
"1. c #A37D4A",
"2. c #A07847",
"3. c #BA6F51",
"4. c #827A61",
"5. c #BB746C",
"6. c #CE6D4E",
"7. c #CD586A",
"8. c #E0756E",
"9. c #78A158",
"0. c #A6824E",
"q. c #898463",
"w. c #8E8C64",
"e. c #908F65",
"r. c #949466",
"t. c #9B9E67",
"y. c #979866",
"u. c #9DA068",
"i. c #A1A668",
"p. c #A4AB69",
"a. c #A9B46B",
"s. c #ADB86B",
"d. c #B1BF6C",
"f. c #D8895E",
"g. c #C89278",
"h. c #E18C6F",
"j. c #E68875",
"k. c #EA937D",
"l. c #B7C76E",
"z. c #BBCC6F",
"x. c #BED16F",
"c. c #BFD370",
"v. c #C0D470",
"b. c #6E7682",
"n. c #757D86",
"m. c #837F82",
"M. c #A27985",
"N. c #D87D84",
"B. c #458F9F",
"V. c #7B8389",
"C. c #778484",
"Z. c #609AA6",
"A. c #86888B",
"S. c #919793",
"D. c #AE9396",
"F. c #9AA69A",
"G. c #93A095",
"H. c #A7A09E",
"J. c #A09FA3",
"K. c #8BB2BE",
"L. c #B3ACA7",
"P. c #A6B6B9",
"I. c #A6ADAB",
"U. c #D1918E",
"Y. c #EB9683",
"T. c #F09A88",
"R. c #EEA18D",
"E. c #F2A291",
"W. c #F4A897",
"Q. c #D5A5A4",
"!. c #F7AFA0",
"~. c #FABBAC",
"^. c #E9B5AF",
"/. c #BBC0B0",
"(. c #C7C5B8",
"). c #FCC2B4",
"_. c #FEC6BA",
"`. c #FFC9BD",
"'. c #E8EEAA",
"]. c #D9D4C4",
"[. c #E1DFD6",
"{. c None",
/* pixels */
"v.v.v.v.v.v.v.v.c.c.c.c.b y g c.r.t t t c.c.v.c.c.v.v.v.v.v.v.v.v.v.",
"v.v.v.v.v.v.v.v.c.s.r.t q q q y t q q q t l s.z.v.v.v.v.v.v.v.v.v.v.",
"v.v.v.v.v.v.v.v.u.t t w 1 4 - w 1 4 4 - w q t q.x.v.v.v.v.v.v.v.v.v.",
"v.v.v.v.v.v.v.r.u 0 6 5 $.%.%.5 5 $.<.%.5 : 0 q C 9.v.9.v.v.v.v.v.v.",
"v.v.v.v.v.v.v.a.h w s : } $.0.%. .0.0.%.} = 0 q t b 9.v.v.v.v.v.v.v.",
"v.v.v.v.v.v.v.v t q % 4 <.1.0...= 5 X.= : } } } < t b v.v.v.v.v.v.v.",
"v.v.v.v.9.v.q.y , < } %.0.0.0.1.%.0.0.0.1.} = w t g v.v.v.v.v.v.v.v.",
"v.v.v.v.v.9.c.l t w 4 } #.1.1.<.<.%.0.0.<.0.%.5 0 y a.v.v.v.v.v.v.v.",
"v.v.v.v.v.9.p.j 0 4 4  .<.<.4 #.0.$.%.0.o.<.| X.5 0 j p.c.v.v.v.v.v.",
"v.v.v.v.v.p.j s % 2 { X.| 4 = 5 <.&.] $.| | 5 : c w j a.c.c.v.v.v.v.",
"v.v.v.v.v.l.V t q < = [ 4 ) _ ) 5 ' _ ' : 5 3.+.q u l.c.v.v.v.v.v.v.",
"v.v.v.v.v.v.v.l y O.~.3.' h.k.=.g.5.Y.Y._ 2 g.6.e h c.c.v.v.v.v.v.v.",
"v.v.v.v.v.l.a.a.p e 3.5.U.Z.7 W._.!.g B._.U.;.N y v.v.v.v.v.v.v.v.v.",
"v.v.v.c.l.C i n n n s *.R.`.K.`.]._.P._.~.=.~ w y y.i.v.v.v.v.v.v.v.",
"v.v.v.c.b i B I.J.V.s K 6._.`.`.`.`.]._.Y.I F Y & t g u.v.v.v.v.v.v.",
"v.v.v.l i B P.[.].F.k D @.T.`.k.6.j.~.E.O.G T T R . y g i.v.v.v.v.v.",
"v.v.v.t n C.(.].I.M > D ` P E.~.).~.E.J _ G E E E T . t r.c.c.c.v.v.",
"v.v.v.g i B A.J.9.M > L *./ G ( j.@.K ! U G T E W W X t w.c.c.c.v.v.",
"v.v.v.c.t y d a 9 a G E H f.7.E E E / `   X - 6 5 6 6 y y w.c.v.v.v.",
"v.v.v.z.t , G L F F $ T E E U.N.6.*.' X 4 ..%.%.<.>. .f r t w.v.v.v.",
"v.v.v.z.t > T E T D a ~ T E ! 7.-.@.X [ <.<. .} | | 2 $., r t c.v.v.",
"v.v.v.v.u.e ^ E E 9 u c I T E E E Y ..<.4 #.4 [ | | < X.3 @ t c.v.v.",
"v.v.v.v.a.t ^ 8.].~.t & ] } F T D X <.| = | 5 [ | } = | 4 o t c.v.v.",
"v.v.v.'.v.r.e Q.E.5.m f ~ 3 ] ] ~ ..<. .= | | | | | 4 | 2 o t v.v.v.",
"v.v.v.v.'.p.N M.D.m V.A.A x H G X :.#.| = | | X.| | { | - @ y v.v.v.",
"v.v.v.v.'.v.a.j t A.V.n.A.f E T    .#.| = | | X.| } : } * + t v.v.v.",
"v.v.v.v.'.c.c.s.i F.Z b.V.L.a G   o.#.| = | 5 { | } : [ O r t c.v.v.",
"v.v.v.v.c.c.c.c.g A y A n.C.(.t 0 O ,.X.= | 4 [ | } % # 9 t l.v.v.v.",
"v.v.v.v.c.v.v.v.z y j g n.b.C.L.d 4 # ] = | 4 5 [ % > + u s.v.v.v.v.",
"v.v.v.v.c.c.v.v.v.C v.y.k m.b.A.J.x [ + > 4 = # + + g v i.v.v.v.v.v.",
"v.v.v.v.v.v.v.v.v.v.v.v.y.p A n.A.S.k y 8 8 8 + q q.y.v.v.v.v.v.v.v.",
"v.v.v.v.v.v.v.v.v.v.v.v.v.p.y S S.G.H.u u.u.u.u.u.c.v.v.v.v.v.v.v.v.",
"{.{.{.{.{.{.{.{.{.{.{.{.{.{.{.g A /.].i {.{.{.{.{.{.{.{.{.{.{.{.{.{.",
"{.{.{.{.{.{.{.{.{.{.{.{.{.{.{.{.t t t t {.{.{.{.{.{.{.{.{.{.{.{.{.{."
};
