/* XPM */
static char *result[] = {
/* columns rows colors chars-per-pixel */
"32 32 218 2 ",
"   c #77736D",
".  c #79756D",
"X  c #7E7A6C",
"o  c #617D79",
"O  c #617F79",
"+  c #627F7A",
"@  c #647F79",
"#  c #9B6C5D",
"$  c #9D6F5F",
"%  c #A0725D",
"&  c #AA7959",
"*  c #AC7C5B",
"=  c #AD7D5B",
"-  c #9F7260",
";  c #A47760",
":  c #78A158",
">  c #6F9365",
",  c #668078",
"<  c #64847A",
"1  c #65847A",
"2  c #67847C",
"3  c #68857D",
"4  c #69867D",
"5  c #688B7B",
"6  c #698C7B",
"7  c #6A8E7B",
"8  c #6A8F7B",
"9  c #6B887E",
"0  c #6D8A7D",
"q  c #6C8A7E",
"w  c #7D8772",
"e  c #718D7B",
"r  c #708D7E",
"t  c #728F7F",
"y  c #6B907B",
"u  c #6B917B",
"i  c #6E967C",
"p  c #779277",
"a  c #7C9777",
"s  c #7D9877",
"d  c #769378",
"f  c #779578",
"g  c #789678",
"h  c #7A977E",
"j  c #71987D",
"k  c #739B7E",
"l  c #749B7F",
"z  c #749C7F",
"x  c #759C7F",
"c  c #AF805D",
"v  c #B2845F",
"b  c #809073",
"n  c #859D75",
"m  c #879F75",
"M  c #A58866",
"N  c #A48C67",
"B  c #B48660",
"V  c #B38767",
"C  c #B48866",
"Z  c #B98C64",
"A  c #BA8D65",
"S  c #BA8E65",
"D  c #A59767",
"F  c #A99B67",
"G  c #A19268",
"H  c #AC966A",
"J  c #BD9167",
"K  c #B3976A",
"L  c #93A974",
"P  c #92AA74",
"I  c #96AC74",
"U  c #99B073",
"Y  c #9BB273",
"T  c #9DB473",
"R  c #99B074",
"E  c #ACAA6B",
"W  c #B0AF6A",
"Q  c #BEA86E",
"!  c #AEB56F",
"~  c #BAB06F",
"^  c #A0B573",
"/  c #A4B973",
"(  c #A5BB73",
")  c #A6BC72",
"_  c #A7BC73",
"`  c #A8BE72",
"'  c #A9BE72",
"]  c #AABF72",
"[  c #BBB270",
"{  c #B7B971",
"}  c #B5BB71",
"|  c #B6BA71",
" . c #B6BE72",
".. c #C09569",
"X. c #C1966A",
"o. c #C1976A",
"O. c #C49A6C",
"+. c #C0A36E",
"@. c #A9C072",
"#. c #ABC172",
"$. c #ACC172",
"%. c #ADC372",
"&. c #B2C373",
"*. c #B0C471",
"=. c #B2C771",
"-. c #B0C572",
";. c #B3C972",
":. c #B4C871",
">. c #B4C971",
",. c #B5CA71",
"<. c #B6CB71",
"1. c #B6C972",
"2. c #B7CA72",
"3. c #B8C972",
"4. c #BACC71",
"5. c #B9CE70",
"6. c #B9CC72",
"7. c #BDD070",
"8. c #BDD170",
"9. c #BDD071",
"0. c #BDD270",
"q. c #BED270",
"w. c #BFD370",
"e. c #BFD371",
"r. c #C0D470",
"t. c #718F80",
"y. c #739180",
"u. c #749281",
"i. c #749381",
"p. c #759481",
"a. c #769681",
"s. c #779681",
"d. c #7A9882",
"f. c #7C9B83",
"g. c #789F81",
"h. c #7F9E86",
"j. c #79A081",
"k. c #7AA081",
"l. c #7AA181",
"z. c #7CA382",
"x. c #7DA483",
"c. c #7FA583",
"v. c #819A84",
"b. c #81A784",
"n. c #82A885",
"m. c #85AB86",
"M. c #86AC87",
"N. c #8AAF88",
"B. c #8BB089",
"V. c #8CB189",
"C. c #8DB28A",
"Z. c #90B48B",
"A. c #90B58B",
"S. c #91B48C",
"D. c #91B68C",
"F. c #92B68C",
"G. c #93B78C",
"H. c #93B88C",
"J. c #94B88D",
"K. c #97BB8E",
"L. c #98BC8E",
"P. c #98BC8F",
"I. c #99BD8F",
"U. c #9ABF90",
"Y. c #9BBF90",
"T. c #BFB48F",
"R. c #C5BE95",
"E. c #C6BE95",
"W. c #9BC090",
"Q. c #9CC090",
"!. c #9CC190",
"~. c #9CC191",
"^. c #9DC191",
"/. c #9DC291",
"(. c #9EC291",
"). c #9FC392",
"_. c #9FC492",
"`. c #A2C591",
"'. c #A0C492",
"]. c #A0C592",
"[. c #A0C593",
"{. c #A1C593",
"}. c #A1C693",
"|. c #A2C793",
" X c #A3C894",
".X c #A4C994",
"XX c #A6CB95",
"oX c #A8CD96",
"OX c #AACF97",
"+X c #AAD097",
"@X c #ABD097",
"#X c #ACD198",
"$X c #ACD298",
"%X c #ADD298",
"&X c #ADD398",
"*X c #ADD399",
"=X c #AED499",
"-X c #AFD499",
";X c #B2D799",
":X c #B4D799",
">X c #B4D899",
",X c #B5D899",
"<X c #B6D999",
"1X c #B7D999",
"2X c #B8DA99",
"3X c #B9DA9A",
"4X c #B9DB9A",
"5X c #BADB9A",
"6X c #BBDC9A",
"7X c #CCC89B",
"8X c #C0DF9A",
"9X c #C1DF9A",
"0X c #C1E09A",
"qX c #C2E09A",
"wX c #D1DAA1",
"eX c #DBDFA7",
"rX c #DFE5A9",
"tX c #E8EEAA",
/* pixels */
"r.r.r.r.r.r.r.r.r.r.r.r.r.r.r.r.r.r.r.r.r.r.r.r.r.r.r.r.r.r.r.r.",
"r.r.r.r.r.r.r.r.r.r.r.r.L , , , , , , , , ( r.r.r.r.r.r.r.r.r.r.",
"r.r.r.r.r.r.r.r.r.r.I @ f.'.OXOXOXOXOXQ.J.t _ r.r.r.r.r.r.r.r.r.",
"r.r.r.r.r.r.r.r.U o d.[.&X=X3X0X0X,X5X9X:X^.r o @.: r.: r.r.r.r.",
"r.r.r.r.r.r.r.R s.}.=X=X=X=X4XqXqX<X6XqX>X=X/.K.0 #.: r.r.r.r.r.",
"r.r.r.r.r.w.Y p.{.1XqXqX2X3XqXqX<X=X=X=X=X=X=X=X~.9 %.w.r.r.r.r.",
"r.r.r.r.: T i.L.}.<X9XqXqXqX9X<X=X=X6XqXqX>X-X-X^.K.4 *.r.r.r.r.",
"r.r.r.r.q.> h.=X=X=X=X1X9X1X=X=X=X=X5X9X9XqXqXqX`.P.q $.w.r.r.r.",
"r.r.r.r.^ y.'.=X=X=X=X=X=X=X=X=X=X=X=X=X=X6X8X8X;X=XW.3 =.r.r.r.",
"r.r.r.r.^ y.).#X%X=X=X&X#X&X=X=X=X=X=X$X#X#X*X=X$X#XY.3 =.r.r.r.",
"r.r.r.r.^ y.K.K.{.=X=X XK. X=X=X=X=X=X_.K.K.oX=X~.K.S.e :.r.r.r.",
"r.r.r.r.^ y.K.K._.@X@X}.K.}.@X@X%X=X$X].U.U.XX@XQ.K.4 *.r.r.r.r.",
"r.r.r.r.( h S.K.K.I.Y.Y.I.K.K.K.|.+X(..X+X+X!.K.K.K.t./ 0.r.r.r.",
"r.r.r.r.r.T u.K.K._.OXOX].K.K.K.K.K.K.K.K.K.K.K.K.K.K.3 =.r.r.r.",
"r.r.r.r.5.P a.K.K.K.K.K.K.K.K.K.K.K.K.K.K.K.K.K.K.K.A.2 =.r.r.r.",
"r.r.r.r.^ < k.C.D.G.C.F.K.F.C.C.H.K.K.K.K.A.C.C.C.C.l O =.r.r.r.",
"r.r.r.r.^ < i i c.m.i n.K.b.i i M.K.K.K.K.l.i i i i i O =.r.r.r.",
"r.r.r.r.^ < i i l.c.i z.V.n.j.j.B.K.Z.V.V.c.j.j.j i y p <.r.r.r.",
"r.r.r.r.] d u i k l.l.z i x.B.B.B.B.g.i i n.B.B.x i + *.r.r.r.r.",
"r.r.r.r.r.T 1 i k.N.N.z.i i i i i i i i i i i i i i + wXr.tXr.r.",
"r.r.r.r.r.] f y i i i i i i i i i i i i i i i i i 7 a ,.tXr.r.r.",
"r.r.r.r.r.r.' v.6 y i i i i i i i i i i i i 8 6 6 s >.r.r.r.r.r.",
"r.r.r.r.r.r.tX` n g 5 5 5 5 5 5 5 5 5 5 5 5 s n n ;.r.r.r.r.r.r.",
"r.r.r.tXr.r.tXr.r.) m m w . X X X X X   b m -.r.r.r.r.r.r.r.r.r.",
"r.r.r.r.tXr.tXr.r.r.r.r.F % * & & & = # W r.r.r.r.r.r.r.r.r.r.r.",
"r.r.r.r.tXr.r.r.r.r.tX7.D ; v c c c B $ E q.r.r.r.r.r.r.r.r.r.r.",
"r.r.r.r.tXr.r.r.r.8.6.eXG ; A Z S J J - T.3.rXq.r.r.r.r.r.r.r.r.",
"r.r.r.r.r.r.r.r.8.1.&.E.M C X...o.O.O.V N 7X&.3.e.r.r.r.r.r.r.r.",
"r.r.r.r.r.r.r.r.4.&.&.R.K O.O.O.O.O.O.O.H ! &.&.9.r.r.r.r.r.r.r.",
"r.r.r.r.r.r.r.r.7.1.&.&.| ~ ~ +.O.Q ~ ~  .&.&.2.e.r.r.r.r.r.r.r.",
"r.r.r.r.r.r.r.r.r.7.4.1.&.&.&.{ [ } &.&.&.2.4.e.r.r.r.r.r.r.r.r.",
"r.r.r.r.r.r.r.r.r.r.r.8.4.4.4.4.4.4.4.4.4.q.r.r.r.r.r.r.r.r.r.r."
};
